<svg xmlns="http://www.w3.org/2000/svg" xmlns:xlink="http://www.w3.org/1999/xlink" width="226.2" height="91" viewBox="0 0 174 70">
  <defs>
    <clipPath id="clip-path">
      <rect id="Rectangle_2831" width="22" height="22" fill="#fff"/>
    </clipPath>
  </defs>
  <g id="Groupe_3327" data-name="Groupe 3327" transform="translate(11365 -1707)">
    <g id="Groupe_3273" data-name="Groupe 3273" transform="translate(-1638.637 -1386)">
      <rect id="Rectangle_1642" data-name="Rectangle 1642" width="70" height="70" rx="13" transform="translate(-9622.363 3093)" fill="#1b1653"/>
      <g id="Groupe_2329" data-name="Groupe 2329" transform="translate(-1213.108 11804.966)">
        <circle id="Ellipse_369" data-name="Ellipse 369" cx="22.933" cy="22.933" r="22.933" transform="translate(-8397.188 -8699.899)" fill="#fff"/>
        <g id="Ellipse_370" data-name="Ellipse 370" transform="translate(-8393.422 -8661.991) rotate(-83)" fill="#f6eafc" stroke="#000" stroke-linecap="round" stroke-width="3.058" stroke-dasharray="40">
          <circle cx="17.2" cy="17.2" r="17.2" stroke="none"/>
          <circle cx="17.2" cy="17.2" r="15.671" fill="none"/>
        </g>
        <line id="Ligne_132" data-name="Ligne 132" y2="12.613" transform="translate(-8380.179 -8683.272)" fill="none" stroke="#000" stroke-linecap="round" stroke-width="3.44"/>
        <g id="Groupe_2327" data-name="Groupe 2327" transform="translate(-1577.005 -8576.063)">
          <g id="Tracé_2291" data-name="Tracé 2291" transform="translate(-6783.771 -91.941) rotate(-169)">
            <path id="Tracé_2423" data-name="Tracé 2423" d="M7.644,0A7.644,7.644,0,1,1,0,7.644,7.644,7.644,0,0,1,7.644,0Z" fill="#f39c12"/>
            <path id="Tracé_2424" data-name="Tracé 2424" d="M7.644,0a7.644,7.644,0,0,1,7.644,7.644v0h0v.005h0v.005h0v.005h0V7.7h0V7.7h0V7.71h0v.005h0V7.74h0v.005h0V7.75h0v.005h0V7.76h0v.005h0V7.77h0v.011h0v.005h0V7.9h0v.005h0V7.91h0v.06h0v.005h0V8h0v.005h0v.011h0v.005h0v.005h0V8.07h0v.005h0V8.08h0v.005h0V8.09h0V8.1h0V8.1h0v.1h0v.02h0v.005h0V8.23h0v.005h0v.01h0V8.25h0v.005h0V8.32h0v.005h0V8.33h0v.005h0v.011h0v.005h0V8.43h0v.005h0V8.44h0v.005h0V8.45h0v.03h0v.005h0V8.49h0v.005h0V8.54h0v.005h0V8.55h0V8.6h0v.005h0V8.61h0v.011h0v.005h0V8.66h0v.01h0V8.7h0v.01h0v.005h0v.01h0V8.73h0v.005h0v.01h0V8.75h0v.005h0v.01h0V8.77h0v.01h0v.005h0V8.79h0V8.8h0V8.8h0V9h0v.01h0v.01h0v.005h0V9.1h0v.005h0V9.11h0v.016h0v.005h0v.005h0v.005h0v.016h0V9.2h0v.01h0v.01h0v.01h0v.005h0v.01h0v.01h0V9.26h0v.01h0v.005h0V9.28h0V9.3h0v.01h0V9.5h0v.005h0v.01h0V9.52h0v.015h0V9.54h0v.005h0v.01h0V9.6h0v.01h0v.01h0v.01h0v.01h0v.01h0v.01h0v.01h0v.015h0V9.7h0l-.006.02h0l-.006.02h0V9.74h0v.005h0l-.006.02h0l-.006.02h0V9.8h0v.015h0v.01h0l-.005.015h0l-.005.015h0l-.005.015h0l-.007.02h0V9.9h0l-.005.015h0v.01h0l-.007.02h0l-.006.015h0l-.006.015h0l-.006.015h0l-.006.015h0l-.006.015h0l-.01.025h0l-.008.019h0l-.008.02h0l-.01.024h0l-.025.058h0l-.006.015h0l-.013.029h0l-.013.029h0l-.022.048h0l-.009.019h0l-.009.019h0l-.013.029h0l-.014.029h0l-.027.057h0L14.514,11h0l-.009.019h0l-.012.024h0l-.014.028h0l-.01.019h0l-.029.056h0l-.029.056h0l-.01.019h0l-.03.056h0l-.03.055h0l-.073.128h0l-.016.027h0l-.011.018h0l-.011.018h0l-.011.018h0l-.011.018h0l-.011.018h0l-.016.027h0l-.014.022h0l-.014.022h0l-.014.022h0l-.02.031h0L14,11.9h0l-.035.052h0l-.048.069h0l-.012.017h0l-.033.047h0l-.018.025h0l-.022.03h0l-.012.017h0l-.012.017h0l-.006.008h0l-.069.092h0l-.077.1h0l-.016.02h0q-.056.07-.113.138h0l-.037.044h0l-.013.016h0l-.02.024h0l-.014.016h0l-.017.02h0l-.017.02h0a7.63,7.63,0,0,1-4.645,2.5,1.147,1.147,0,0,1-.364-2.23A5.352,5.352,0,0,0,7.64,2.293h0a5.362,5.362,0,0,0-1.5.213A1.148,1.148,0,0,1,5.5.3c.13-.038.26-.072.393-.1h.086L6,.176H7.644Z"/>
          </g>
          <line id="Ligne_133" data-name="Ligne 133" x2="8.791" transform="translate(-6799.352 -102.624)" fill="none" stroke="#000" stroke-linecap="round" stroke-width="2.293"/>
          <line id="Ligne_134" data-name="Ligne 134" x2="8.791" transform="translate(-6799.352 -98.802)" fill="none" stroke="#000" stroke-linecap="round" stroke-width="2.293"/>
        </g>
      </g>
    </g>
    <rect id="Rectangle_1642-2" data-name="Rectangle 1642" width="70" height="70" rx="13" transform="translate(-11365 1707)" fill="#797888"/>
    <g id="Groupe_3317" transform="translate(-202 -105)">
      <g id="Groupe_3305" transform="translate(-11149 1826)">
        <rect id="Rectangle_1642-3" data-name="Rectangle_1642" width="42" height="42" rx="21"/>
        <g id="Groupe_de_masques_71" transform="translate(10 8.571)" clip-path="url(#clip-path)">
          <g id="cd0f056bdab157702a5b28c053f1b0f8" transform="translate(-0.027 1.018)">
            <path id="Tracé_4678" d="M17.794,23.166a3.143,3.143,0,0,1-3.006-2.219H20.8a3.176,3.176,0,0,1-3.006,2.219Zm-12.981,0a3.268,3.268,0,0,1-3.042-2.219H7.855a3.233,3.233,0,0,1-3.041,2.219ZM17.405,9.45H15.141A1.079,1.079,0,0,1,14.08,8.359V8.25H12.842a.359.359,0,0,1-.354-.364.386.386,0,0,1,.354-.364H14.08V7.413a1.079,1.079,0,0,1,1.061-1.091h.212c-.212-.437-.5-.982-.672-1.382l-.354.437a.371.371,0,0,1-.5.036A.361.361,0,0,1,13.8,4.9c-.071.073,1.238-1.492,1.273-1.564a.337.337,0,0,1,.5-.036.361.361,0,0,1,.035.509l-.424.509c.212.437.743,1.455.99,1.965h1.238a1.057,1.057,0,0,1,1.061,1.091V8.32a1.089,1.089,0,0,1-1.068,1.13ZM4.814,16.472a3.828,3.828,0,0,1,3.749,3.747H1.1a3.774,3.774,0,0,1,3.714-3.747Zm12.981.109a3.491,3.491,0,0,1,3.431,3.456.336.336,0,0,0,.035.182H14.328a.279.279,0,0,0,.035-.182,3.491,3.491,0,0,1,3.431-3.456Z" transform="translate(0.767 -3.206)" fill="#fff"/>
            <path id="Tracé_4679" d="M7.749,17.6h7.958a2.258,2.258,0,0,0,1.026-.255,4.435,4.435,0,0,1,.5,2.037v2.11h1.379c1.91,0,2.83-4.548,3.042-7.312a1.412,1.412,0,0,0,.389.036h2.37c.743,1.819.6,3.711.637,5.712H24.7a4.235,4.235,0,0,0-4.138,4.184.336.336,0,0,0,.035.182H16.132a4.494,4.494,0,0,0-4.421-4.475A4.494,4.494,0,0,0,7.29,24.294H6.547a.359.359,0,0,1-.354-.364V19.382a4.064,4.064,0,0,1,.531-2.037,2.258,2.258,0,0,0,1.025.255Z" transform="translate(-6.131 -7.28)" fill="#ff5c5c"/>
            <path id="Tracé_4680" d="M28.418,16.55H20.46a1.619,1.619,0,0,1,0-3.238h7.958a1.619,1.619,0,0,1,0,3.238Z" transform="translate(-18.841 -6.958)" fill="#8872ff"/>
          </g>
        </g>
      </g>
    </g>
    <path id="_4deb86abad8b7205f4ad60f5a8c95624" data-name="4deb86abad8b7205f4ad60f5a8c95624" d="M8,4V28L26,16Z" transform="translate(-11295 1726)"/>
  </g>
</svg>
